HIERARCHY
ROOT Hips
{
  OFFSET 50.2771 96.904 18.2895
  CHANNELS 6 Xposition Yposition Zposition Zrotation Xrotation Yrotation
  JOINT spine
  {
    OFFSET 0 7.96568 0.458067
    CHANNELS 3 Zrotation Xrotation Yrotation
    JOINT spine1
    {
      OFFSET 0 10.2431 0
      CHANNELS 3 Zrotation Xrotation Yrotation
      JOINT spine2
      {
        OFFSET 0 9.81475 0
        CHANNELS 3 Zrotation Xrotation Yrotation
        JOINT Neck
        {
          OFFSET 0 25.1986 1.20138
          CHANNELS 3 Zrotation Xrotation Yrotation
          JOINT Head
          {
            OFFSET 0 7.61315 0
            CHANNELS 3 Zrotation Xrotation Yrotation
            End Site
            {
              OFFSET 0 18.4281 -6.07733
            }
          }
        }
        JOINT RightShoulder
        {
          OFFSET -4.1327 10.5992 -0.575451
          CHANNELS 3 Zrotation Xrotation Yrotation
          JOINT RightArm
          {
            OFFSET 0 13.9018 0
            CHANNELS 3 Zrotation Xrotation Yrotation
            JOINT RightArmRoll
            {
              OFFSET 0 7.01788 0
              CHANNELS 3 Zrotation Xrotation Yrotation
              JOINT RightForeArm
              {
                OFFSET 0 20.4406 0
                CHANNELS 3 Zrotation Xrotation Yrotation
                JOINT RightForeArmRoll
                {
                  OFFSET 0 7.87516 0
                  CHANNELS 3 Zrotation Xrotation Yrotation
                  JOINT RightHand
                  {
                    OFFSET 0 15.8037 0
                    CHANNELS 3 Zrotation Xrotation Yrotation
                    End Site
                    {
                      OFFSET 0 0 0
                    }
                  }
                }
              }
            }
          }
        }
        JOINT LeftShoulder
        {
          OFFSET 4.1327 10.5992 -0.575451
          CHANNELS 3 Zrotation Xrotation Yrotation
          JOINT LeftArm
          {
            OFFSET 0 13.9018 0
            CHANNELS 3 Zrotation Xrotation Yrotation
            JOINT LeftArmRoll
            {
              OFFSET 0 7.01789 0
              CHANNELS 3 Zrotation Xrotation Yrotation
              JOINT LeftForeArm
              {
                OFFSET 0 20.4406 0
                CHANNELS 3 Zrotation Xrotation Yrotation
                JOINT LeftForeArmRoll
                {
                  OFFSET 0 7.87515 0
                  CHANNELS 3 Zrotation Xrotation Yrotation
                  JOINT LeftHand
                  {
                    OFFSET 0 15.8037 0
                    CHANNELS 3 Zrotation Xrotation Yrotation
                    End Site
                    {
                      OFFSET 0 0 0
                    }
                  }
                }
              }
            }
          }
        }
      }
    }
  }
  JOINT RightUpLeg
  {
    OFFSET -7.06048 -1.2947 -1.0861
    CHANNELS 3 Zrotation Xrotation Yrotation
    JOINT RightUpLegRoll
    {
      OFFSET 0 18.5308 0
      CHANNELS 3 Zrotation Xrotation Yrotation
      JOINT RightLeg
      {
        OFFSET 0 -22.9476 0
        CHANNELS 3 Zrotation Xrotation Yrotation
        JOINT RightLegRoll
        {
          OFFSET 0 23.0226 0
          CHANNELS 3 Zrotation Xrotation Yrotation
          JOINT RightFoot
          {
            OFFSET 0 19.1625 0
            CHANNELS 3 Zrotation Xrotation Yrotation
            JOINT RightToeBase
            {
              OFFSET 0 16.0188 0
              CHANNELS 3 Zrotation Xrotation Yrotation
              End Site
              {
                OFFSET 0.00678979 7.75782 -0.894207
              }
            }
          }
        }
      }
    }
  }
  JOINT LeftUpLeg
  {
    OFFSET 7.06048 -1.2947 -1.0861
    CHANNELS 3 Zrotation Xrotation Yrotation
    JOINT LeftUpLegRoll
    {
      OFFSET 0 18.5309 0
      CHANNELS 3 Zrotation Xrotation Yrotation
      JOINT LeftLeg
      {
        OFFSET 0 22.9475 0
        CHANNELS 3 Zrotation Xrotation Yrotation
        JOINT LeftLegRoll
        {
          OFFSET 0 23.2355 0
          CHANNELS 3 Zrotation Xrotation Yrotation
          JOINT LeftFoot
          {
            OFFSET 0 18.9496 0
            CHANNELS 3 Zrotation Xrotation Yrotation
            JOINT LeftToeBase
            {
              OFFSET 0 16.0188 0
              CHANNELS 3 Zrotation Xrotation Yrotation
              End Site
              {
                OFFSET -0.0304289 7.75782 -0.894206
              }
            }
          }
        }
      }
    }
  }
}
MOTION
Frames: 11
Frame Time: 0.00208333
46.6194 96.5217 13.942 2.02584 -4.97639 12.3004 0.321305 0.141301 -0.00173174 0.643651 4.28551 -0.0480354 0.64526 5.93054 -0.0589224 -11.4245 11.9821 6.8618 7.90974 11.7667 3.97517 56.6051 0.307987 0.457183 109.513 47.2472 -15.4783 1.37248e-006 1.18238e-006 1.06696e-005 176.708 71.3141 176.732 -7.17812e-006 6.33375e-006 -2.99999 8.03005 -4.95123 0.697599 -60.8649 -12.622 7.82251 -107.817 39.2096 37.2998 4.71186e-006 8.20737e-007 8.21898e-006 175.546 49.6107 -152.847 4.39329e-006 -3.9795e-006 2.99999 -8.02984 -4.95106 -0.697558 175.014 -5.15181 4.87422 180 7.01499e-015 178.733 178.114 8.37559 179.641 -4.58679e-006 -4.49276e-006 0.143315 -19.3158 68.5969 20.0492 8.12237 25.2324 -3.4788 -172.595 3.17119 -0.961552 4.54188e-006 -4.6773e-006 -1.32337 1.21127 -11.5881 0.439759 -1.6134e-006 -4.95199e-006 -0.0186171 17.7244 66.2983 -18.2094 -8.12607 25.2332 3.4833 
46.6211 96.5216 13.961 2.00231 -4.98733 12.1197 0.323628 0.130504 -0.00366151 0.648469 4.26389 -0.0516019 0.650124 5.90892 -0.062574 -11.4346 12.2005 6.86516 7.91624 11.6499 3.96228 56.7733 0.297348 0.428872 109.387 46.6576 -16.0828 1.37248e-006 1.18238e-006 1.06696e-005 177.19 70.619 175.869 -7.17812e-006 6.33375e-006 -2.99999 8.03005 -4.95123 0.697599 -60.9015 -12.5153 7.75631 -107.679 39.1229 37.0395 4.71186e-006 8.20737e-007 8.21898e-006 175.582 49.5049 -152.902 4.39329e-006 -3.9795e-006 2.99999 -8.02984 -4.95106 -0.697558 175.013 -5.11717 4.86473 180 7.01499e-015 178.732 178.129 8.40758 179.638 -4.58679e-006 -4.49276e-006 0.14332 -19.3046 68.5824 20.0366 8.12238 25.2325 -3.47796 -172.567 3.10589 -0.999278 4.54188e-006 -4.6773e-006 -1.32465 1.18781 -11.5836 0.436971 -1.6134e-006 -4.95199e-006 -0.0196493 17.7311 66.3079 -18.2167 -8.12608 25.2332 3.4833 
46.6238 96.5272 13.9974 1.97878 -4.99972 11.9381 0.326048 0.120518 -0.00592026 0.653472 4.24387 -0.0558921 0.655183 5.8889 -0.0669533 -11.4392 12.4092 6.86665 7.91672 11.5401 3.94941 56.9405 0.283856 0.399017 109.27 46.0699 -16.6831 1.37248e-006 1.18238e-006 1.06696e-005 177.642 69.9367 175.032 -7.17812e-006 6.33375e-006 -2.99999 8.03005 -4.95123 0.697599 -60.9346 -12.4081 7.68993 -107.545 39.0354 36.7796 4.71186e-006 8.20737e-007 8.21898e-006 175.619 49.4006 -152.959 4.39329e-006 -3.9795e-006 2.99999 -8.02984 -4.95106 -0.697558 175.012 -5.08414 4.85547 180 7.01499e-015 178.731 178.143 8.43869 179.635 -4.58679e-006 -4.49276e-006 0.143302 -19.2931 68.5676 20.0237 8.12241 25.2329 -3.47692 -172.54 3.0385 -1.03775 4.54188e-006 -4.6773e-006 -1.32595 1.16367 -11.5789 0.434134 -1.6134e-006 -4.95199e-006 -0.0207575 17.7379 66.3178 -18.2242 -8.12608 25.2332 3.4833 
46.6261 96.5225 14.0102 1.95543 -5.01372 11.756 0.328522 0.111459 -0.00854801 0.658572 4.22568 -0.0610053 0.660349 5.8707 -0.0721581 -11.437 12.6066 6.8657 7.90996 11.4389 3.93643 57.107 0.266862 0.367123 109.164 45.4831 -17.2779 1.37248e-006 1.18238e-006 1.06696e-005 178.066 69.2661 174.221 -7.17812e-006 6.33375e-006 -2.99999 8.03005 -4.95123 0.697599 -60.9633 -12.3005 7.62341 -107.415 38.9475 36.5208 4.71186e-006 8.20737e-007 8.21898e-006 175.655 49.2982 -153.018 4.39329e-006 -3.9795e-006 2.99999 -8.02984 -4.95106 -0.697558 175.011 -5.05311 4.84658 180 7.01499e-015 178.73 178.158 8.46873 179.633 -4.58679e-006 -4.49276e-006 0.143261 -19.2816 68.5528 20.0107 8.12246 25.2335 -3.47567 -172.512 2.96889 -1.07667 4.54188e-006 -4.6773e-006 -1.32726 1.13901 -11.5738 0.431275 -1.6134e-006 -4.95199e-006 -0.0219423 17.7449 66.3279 -18.2318 -8.12609 25.2332 3.4833 
46.636 96.5291 14.0275 1.93245 -5.02948 11.5739 0.331008 0.103448 -0.0115847 0.66368 4.20955 -0.0670411 0.665534 5.85457 -0.0782865 -11.4267 12.7911 6.86177 7.89471 11.3478 3.92315 57.2735 0.245714 0.332691 109.071 44.8966 -17.8659 1.37248e-006 1.18238e-006 1.06696e-005 178.466 68.6061 173.436 -7.17812e-006 6.33375e-006 -2.99999 8.03005 -4.95123 0.697599 -60.9871 -12.1924 7.55679 -107.29 38.8594 36.264 4.71186e-006 8.20737e-007 8.21898e-006 175.691 49.1982 -153.079 4.39329e-006 -3.9795e-006 2.99999 -8.02984 -4.95106 -0.697558 175.009 -5.02451 4.83818 180 7.01498e-015 178.729 178.173 8.49757 179.63 -4.58679e-006 -4.49276e-006 0.143198 -19.27 68.5377 19.9976 8.12253 25.2344 -3.47418 -172.484 2.89697 -1.1157 4.54188e-006 -4.6773e-006 -1.32858 1.11399 -11.5684 0.428424 -1.6134e-006 -4.95199e-006 -0.0232043 17.7519 66.3381 -18.2395 -8.12609 25.2332 3.48331 
46.6355 96.5286 14.0495 1.91002 -5.04716 11.3925 0.333464 0.0966005 -0.0150704 0.668705 4.19572 -0.0740986 0.67065 5.84074 -0.0854365 -11.4072 12.9608 6.85429 7.86977 11.2683 3.90941 57.4402 0.219764 0.295223 108.994 44.3098 -18.4459 1.37248e-006 1.18238e-006 1.06696e-005 178.844 67.9556 172.676 -7.17812e-006 6.33375e-006 -2.99999 8.03005 -4.95123 0.697599 -61.0053 -12.0839 7.49009 -107.169 38.7714 36.0098 4.71186e-006 8.20737e-007 8.21898e-006 175.727 49.1012 -153.142 4.39329e-006 -3.9795e-006 2.99999 -8.02984 -4.95106 -0.697558 175.006 -4.99874 4.83041 180 7.01498e-015 178.728 178.187 8.52498 179.627 -4.58679e-006 -4.49276e-006 0.143114 -19.2583 68.5227 19.9844 8.12261 25.2355 -3.47243 -172.457 2.82262 -1.15454 4.54188e-006 -4.6773e-006 -1.32991 1.08878 -11.5627 0.425609 -1.6134e-006 -4.95199e-006 -0.0245443 17.759 66.3484 -18.2472 -8.1261 25.2332 3.48331 
46.6353 96.5297 14.072 1.88757 -5.06753 11.2111 0.33611 0.0910562 -0.0189691 0.674098 4.18444 -0.0820989 0.676145 5.82946 -0.0935362 -11.378 13.1153 6.84355 7.83439 11.2006 3.8957 57.606 0.189403 0.255177 108.941 43.7171 -19.0262 1.37248e-006 1.18238e-006 1.06696e-005 179.218 67.3165 171.916 -7.17812e-006 6.33375e-006 -2.99999 8.03005 -4.95123 0.697599 -61.0173 -11.9749 7.42326 -107.056 38.6824 35.7577 4.71186e-006 8.20737e-007 8.21898e-006 175.763 49.0056 -153.206 4.39329e-006 -3.9795e-006 2.99999 -8.02984 -4.95106 -0.697558 175.004 -4.97668 4.82289 180 7.01498e-015 178.727 178.202 8.55057 179.624 -4.58679e-006 -4.49276e-006 0.142996 -19.2464 68.5073 19.9708 8.12273 25.2372 -3.47018 -172.429 2.74476 -1.19454 4.54188e-006 -4.6773e-006 -1.33129 1.0628 -11.5563 0.422742 -1.6134e-006 -4.95199e-006 -0.0259795 17.7662 66.3589 -18.2551 -8.12611 25.2332 3.48331 
46.6453 96.5328 14.1054 1.86443 -5.09098 11.0288 0.33916 0.0867791 -0.0232082 0.680289 4.17564 -0.0908688 0.68245 5.82066 -0.10242 -11.3401 13.2565 6.83036 7.78947 11.1432 3.88253 57.769 0.155669 0.213461 108.916 43.1154 -19.6146 1.37248e-006 1.18238e-006 1.06696e-005 179.601 66.6909 171.136 -7.17812e-006 6.33375e-006 -2.99999 8.03005 -4.95123 0.697599 -61.0233 -11.8652 7.35619 -106.949 38.5914 35.5063 4.71186e-006 8.20737e-007 8.21898e-006 175.799 48.9098 -153.273 4.39329e-006 -3.9795e-006 2.99999 -8.02984 -4.95106 -0.697558 175.003 -4.95851 4.81518 180 7.01497e-015 178.725 178.217 8.57414 179.621 -4.58679e-006 -4.49276e-006 0.142837 -19.2339 68.4912 19.9566 8.12289 25.2394 -3.46728 -172.399 2.66273 -1.23705 4.54188e-006 -4.6773e-006 -1.33274 1.03545 -11.5489 0.419725 -1.6134e-006 -4.95199e-006 -0.027522 17.7738 66.3698 -18.2633 -8.12611 25.2332 3.48332 
46.6515 96.5328 14.1222 1.84064 -5.11709 10.8455 0.342555 0.0836273 -0.0277729 0.687166 4.16905 -0.100367 0.68945 5.81407 -0.112045 -11.2948 13.3856 6.81497 7.73622 11.0948 3.86982 57.9297 0.118883 0.170258 108.913 42.5074 -20.209 1.37248e-006 1.18238e-006 1.06696e-005 179.989 66.0784 170.342 -7.17812e-006 6.33375e-006 -2.99999 8.03005 -4.95123 0.697599 -61.0242 -11.7549 7.2889 -106.85 38.4985 35.2553 4.71186e-006 8.20737e-007 8.21898e-006 175.836 48.8141 -153.342 4.39329e-006 -3.9795e-006 2.99999 -8.02984 -4.95106 -0.697558 175.002 -4.94356 4.80734 180 7.01497e-015 178.724 178.233 8.59606 179.618 -4.58679e-006 -4.49276e-006 0.142641 -19.221 68.4746 19.9419 8.12307 25.242 -3.46384 -172.367 2.57703 -1.28175 4.54188e-006 -4.6773e-006 -1.33424 1.00684 -11.5408 0.416572 -1.6134e-006 -4.95199e-006 -0.0291643 17.7817 66.3811 -18.2719 -8.12612 25.2332 3.48332 
46.65 96.5322 14.1319 1.81627 -5.14545 10.6608 0.346238 0.081459 -0.032648 0.694614 4.16438 -0.110553 0.697032 5.80939 -0.122367 -11.2429 13.504 6.79767 7.67584 11.0543 3.85751 58.0881 0.0793631 0.125751 108.928 41.896 -20.8075 1.37248e-006 1.18238e-006 1.06696e-005 -179.622 65.4789 169.537 -7.17812e-006 6.33375e-006 -2.99999 8.03005 -4.95123 0.697599 -61.0206 -11.6439 7.22138 -106.755 38.4042 35.0044 4.71186e-006 8.20737e-007 8.21898e-006 175.872 48.7186 -153.413 4.39329e-006 -3.9795e-006 2.99999 -8.02984 -4.95106 -0.697558 175.002 -4.93118 4.79943 180 7.01497e-015 178.723 178.248 8.61661 179.615 -4.58679e-006 -4.49276e-006 0.142412 -19.2077 68.4575 19.9268 8.12329 25.2451 -3.45998 -172.334 2.48818 -1.32834 4.54188e-006 -4.6773e-006 -1.33578 0.97708 -11.532 0.413298 -1.6134e-006 -4.95199e-006 -0.0308989 17.7898 66.3928 -18.2808 -8.12613 25.2332 3.48332 
46.6605 96.5372 14.1487 1.79135 -5.17563 10.4746 0.350152 0.0801322 -0.0378188 0.702521 4.16136 -0.121386 0.705081 5.80638 -0.133344 -11.1857 13.6133 6.7787 7.60954 11.0204 3.84551 58.2444 0.0374308 0.0801221 108.955 41.2842 -21.4083 1.37248e-006 1.18238e-006 1.06696e-005 -179.236 64.8922 168.727 -7.17812e-006 6.33375e-006 -2.99999 8.03005 -4.95123 0.697599 -61.0133 -11.5323 7.15364 -106.665 38.3085 34.7534 4.71186e-006 8.20737e-007 8.21898e-006 175.909 48.6237 -153.487 4.39329e-006 -3.9795e-006 2.99999 -8.02984 -4.95106 -0.697558 175.003 -4.92073 4.79151 180 7.01496e-015 178.721 178.264 8.63611 179.612 -4.58679e-006 -4.49276e-006 0.142155 -19.194 68.4399 19.9113 8.12352 25.2484 -3.45581 -172.299 2.39669 -1.37652 4.54188e-006 -4.6773e-006 -1.33736 0.946273 -11.5227 0.409918 -1.6134e-006 -4.95199e-006 -0.0327185 17.7983 66.4048 -18.29 -8.12613 25.2332 3.48332 
